<svg xmlns="http://www.w3.org/2000/svg" viewBox="0 0 1600 1000" role="img" aria-labelledby="t d">
<title id="t">Food guide editorial placeholder</title><desc id="d">A premium dark dining table illustration with a plated meal.</desc>
<defs><linearGradient id="b" x1="0" y1="0" x2="1" y2="1"><stop stop-color="#1d1d17"/><stop offset="1" stop-color="#080808"/></linearGradient><radialGradient id="g"><stop stop-color="#d4af37" stop-opacity=".35"/><stop offset="1" stop-color="#d4af37" stop-opacity="0"/></radialGradient></defs>
<rect width="1600" height="1000" fill="url(#b)"/><circle cx="800" cy="450" r="580" fill="url(#g)"/><ellipse cx="800" cy="580" rx="470" ry="230" fill="#050505" opacity=".75"/><ellipse cx="800" cy="520" rx="420" ry="210" fill="#d9c8a6"/><ellipse cx="800" cy="520" rx="325" ry="145" fill="#654120"/><g fill="#d69b42"><circle cx="680" cy="490" r="72"/><circle cx="810" cy="445" r="62"/><circle cx="930" cy="530" r="78"/></g><g fill="#589048"><path d="M590 570c90-80 160-25 195 30-100 20-155 5-195-30z"/><path d="M830 600c85-75 150-20 180 30-92 18-145 2-180-30z"/></g><g fill="#e7c96b"><circle cx="720" cy="420" r="9"/><circle cx="860" cy="510" r="8"/><circle cx="970" cy="470" r="10"/></g><text x="800" y="885" text-anchor="middle" fill="#e7c96b" font-family="Arial, sans-serif" font-size="30" font-weight="700" letter-spacing="8">WHAT I TRIED</text></svg>
