<svg xmlns="http://www.w3.org/2000/svg" viewBox="0 0 1600 1000" role="img" aria-labelledby="t d">
<title id="t">Forge editorial food illustration</title><desc id="d">A moody bar table with pizza, burger, bao and warm amber lighting.</desc>
<defs>
 <linearGradient id="bg" x1="0" y1="0" x2="1" y2="1"><stop stop-color="#11100e"/><stop offset=".5" stop-color="#20150f"/><stop offset="1" stop-color="#060606"/></linearGradient>
 <radialGradient id="amber"><stop stop-color="#e57d25" stop-opacity=".5"/><stop offset="1" stop-color="#e57d25" stop-opacity="0"/></radialGradient>
 <linearGradient id="steel"><stop stop-color="#746a59"/><stop offset=".5" stop-color="#d1b786"/><stop offset="1" stop-color="#5a5044"/></linearGradient>
</defs>
<rect width="1600" height="1000" fill="url(#bg)"/><circle cx="1180" cy="280" r="560" fill="url(#amber)"/>
<path d="M0 790h1600v210H0z" fill="#171412"/><path d="M0 790h1600" stroke="#d4af37" stroke-opacity=".2" stroke-width="3"/>
<g transform="translate(490 610)"><ellipse rx="360" ry="155" fill="#070707" opacity=".8"/><ellipse cy="-28" rx="330" ry="135" fill="url(#steel)"/><circle cy="-38" r="112" fill="#d99039" stroke="#8a4f20" stroke-width="16"/><path d="M0-150L105 45H-105z" fill="#d7a146"/><g fill="#9c2e25"><circle cx="-24" cy="-48" r="17"/><circle cx="45" cy="3" r="18"/><circle cx="25" cy="-86" r="14"/></g><g fill="#e8d6a6"><circle cx="-55" cy="18" r="11"/><circle cx="50" cy="-45" r="10"/></g></g>
<g transform="translate(1050 660)"><ellipse cy="100" rx="260" ry="75" fill="#070707" opacity=".75"/><path d="M-180 20c30-110 330-110 360 0" fill="#d49b3b"/><path d="M-170 30h340l-18 65H-152z" fill="#5e2d1b"/><path d="M-160 18h320" stroke="#78a542" stroke-width="35"/><path d="M-145 95h290c0 75-290 75-290 0" fill="#e2b45b"/><g fill="#f1d580"><ellipse cx="-80" cy="-28" rx="8" ry="4"/><ellipse cx="-20" cy="-48" rx="8" ry="4"/><ellipse cx="45" cy="-38" rx="8" ry="4"/><ellipse cx="95" cy="-18" rx="8" ry="4"/></g></g>
<g transform="translate(1290 360)"><ellipse cy="150" rx="145" ry="50" fill="#050505" opacity=".7"/><path d="M-90 20h180l-28 190H-62z" fill="#aa5d27" opacity=".82"/><ellipse cy="20" rx="90" ry="28" fill="#f0c26f"/><path d="M-105-10h210l-20 35H-85z" fill="#23211f"/><rect x="-10" y="-165" width="20" height="170" rx="10" fill="#d4af37"/></g>
<g transform="translate(760 310)"><ellipse rx="170" ry="72" fill="#171512"/><ellipse cy="-18" rx="145" ry="58" fill="#e0c18b"/><g fill="#f5ead8"><ellipse cx="-65" cy="-38" rx="48" ry="30"/><ellipse cx="15" cy="-50" rx="48" ry="30"/><ellipse cx="78" cy="-25" rx="48" ry="30"/></g><path d="M-93-35l30 23 30-22M-12-48l28 20 28-24M50-23l28 17 25-25" fill="none" stroke="#a43d2b" stroke-width="9"/></g>
<text x="100" y="115" fill="#e7c96b" font-family="Arial, sans-serif" font-size="42" font-weight="700" letter-spacing="10">FORGE</text>
<text x="102" y="166" fill="#f7f4ee" opacity=".72" font-family="Arial, sans-serif" font-size="22" letter-spacing="3">EDITORIAL FOOD VISUAL</text>
</svg>
